<?xml version="1.0" encoding="utf-8"?>
<!-- Generator: Adobe Illustrator 24.3.0, SVG Export Plug-In . SVG Version: 6.00 Build 0)  -->
<svg version="1.1" id="Ebene_1" xmlns="http://www.w3.org/2000/svg" xmlns:xlink="http://www.w3.org/1999/xlink" x="0px" y="0px"
	 viewBox="0 0 300 98" style="enable-background:new 0 0 300 98;" xml:space="preserve">
<style type="text/css">
	.st0{fill:#FFFFFF;}
</style>
<g>
	<g>
		<path class="st0" d="M54.3,94.4v3.5h-1.4v-3.5l-4-6.5h1.5l3.2,5.3l3.2-5.3h1.4L54.3,94.4z"/>
		<path class="st0" d="M66.7,87.8h1.4v10.1h-1.4V87.8z"/>
		<path class="st0" d="M85.5,96.6v1.2h-7.3V87.8h7.1V89h-5.6v3.1h5v1.2h-5v3.2H85.5z"/>
		<path class="st0" d="M95,87.8h1.4v8.8h5.4v1.2H95V87.8z"/>
		<path class="st0" d="M110.6,87.8h4.2c3.2,0,5.4,2,5.4,5s-2.2,5-5.4,5h-4.2V87.8z M114.8,96.6c2.5,0,4.1-1.5,4.1-3.8
			c0-2.3-1.6-3.8-4.1-3.8h-2.7v7.6H114.8z"/>
		<path class="st0" d="M142,89v3.5h5v1.2h-5v4.1h-1.4V87.8h7.1V89H142z"/>
		<path class="st0" d="M162.8,95.3h-5.3l-1.1,2.5h-1.5l4.5-10.1h1.4l4.5,10.1h-1.5L162.8,95.3z M162.3,94.2l-2.2-4.9l-2.2,4.9H162.3
			z"/>
		<path class="st0" d="M180.7,97.8l-2.2-3.1c-0.2,0-0.4,0-0.6,0h-2.5v3.1H174V87.8h3.9c2.6,0,4.2,1.3,4.2,3.5c0,1.6-0.8,2.7-2.2,3.2
			l2.4,3.4H180.7z M180.7,91.3c0-1.4-1-2.3-2.8-2.3h-2.4v4.5h2.4C179.7,93.6,180.7,92.7,180.7,91.3z"/>
		<path class="st0" d="M200.9,97.8l0-7.3l-3.6,6.1h-0.7l-3.6-6.1v7.3h-1.4V87.8h1.2l4.2,7.1l4.1-7.1h1.2l0,10.1H200.9z"/>
		<path class="st0" d="M212.4,87.8h1.4v10.1h-1.4V87.8z"/>
		<path class="st0" d="M232.6,87.8v10.1h-1.2l-6-7.5v7.5H224V87.8h1.2l6,7.5v-7.5H232.6z"/>
		<path class="st0" d="M249.7,92.8h1.4v3.9c-1,0.8-2.4,1.3-3.8,1.3c-3.1,0-5.3-2.2-5.3-5.1c0-3,2.3-5.1,5.4-5.1
			c1.6,0,2.9,0.5,3.8,1.6l-0.9,0.9c-0.8-0.8-1.8-1.2-2.9-1.2c-2.3,0-4,1.6-4,3.9c0,2.2,1.7,3.9,4,3.9c0.8,0,1.6-0.2,2.3-0.6V92.8z"
			/>
	</g>
	<g>
		<path class="st0" d="M11.8,71.1c1.5,0,3.1-0.3,4.9-1v5.8c-0.8,0.4-1.8,0.7-3.1,1s-2.6,0.4-3.9,0.4c-5.9,0-8.9-2.7-8.9-8
			C0.8,68,1,66.6,1.3,65l3.9-18.5H0l0.7-3.6l6.2-2.7l4.2-7.5h4.7l-1.7,8h9.1l-1.3,5.8h-9L8.9,65c-0.3,1.2-0.4,2.2-0.4,3
			c0,0.9,0.3,1.7,0.8,2.2C9.9,70.8,10.7,71.1,11.8,71.1z"/>
		<path class="st0" d="M47.4,40c1.3,0,2.5,0.1,3.5,0.4l-1.7,7.1c-1.2-0.3-2.3-0.5-3.3-0.5c-2.7,0-5.2,1.2-7.3,3.7
			c-2.1,2.4-3.6,5.7-4.5,9.6l-3.4,16.3H23l7.7-36h6L36,47.3h0.3c1.8-2.6,3.6-4.5,5.4-5.6S45.4,40,47.4,40z"/>
		<path class="st0" d="M83.7,54.1c0,4.4-0.8,8.4-2.4,11.9c-1.6,3.6-3.8,6.3-6.5,8.3c-2.8,1.9-5.9,2.9-9.5,2.9
			c-4.2,0-7.5-1.2-9.9-3.7c-2.4-2.5-3.7-5.9-3.7-10.1c0-4.3,0.8-8.3,2.3-11.9c1.5-3.6,3.7-6.4,6.5-8.4c2.8-2,6-3,9.7-3
			c4.2,0,7.5,1.3,9.9,3.8C82.5,46.3,83.7,49.8,83.7,54.1z M76,53.8c0-2.3-0.5-4.1-1.6-5.4c-1.1-1.3-2.6-2-4.6-2
			c-2,0-3.8,0.8-5.4,2.3c-1.6,1.5-2.8,3.7-3.7,6.3c-0.9,2.7-1.3,5.5-1.3,8.5c0,2.4,0.5,4.2,1.6,5.5c1.1,1.3,2.7,1.9,4.8,1.9
			c2,0,3.7-0.7,5.3-2.2c1.6-1.5,2.8-3.5,3.6-6.2C75.6,59.9,76,57,76,53.8z"/>
		<path class="st0" d="M159.5,77.3c-3.1,0-5.5-1.1-7.3-3.3c-1.8-2.2-2.7-5.3-2.7-9.3c0-4.4,0.8-8.5,2.3-12.3
			c1.5-3.8,3.6-6.8,6.2-9.1c2.6-2.2,5.5-3.3,8.7-3.3c2.1,0,3.9,0.5,5.4,1.5c1.5,1,2.7,2.4,3.5,4.3h0.3l2-5.1h5.9l-7.7,36h-5.9
			l0.7-5.7h-0.2C167.4,75.1,163.6,77.3,159.5,77.3z M162.2,71.1c1.8,0,3.5-0.8,5.2-2.5c1.7-1.7,3.1-3.9,4.2-6.7
			c1.1-2.8,1.7-5.9,1.7-9.2c0-1.9-0.5-3.4-1.5-4.6c-1-1.2-2.4-1.7-4-1.7c-1.8,0-3.6,0.8-5.2,2.5c-1.6,1.7-2.9,3.9-3.9,6.8
			c-1,2.9-1.5,5.8-1.5,8.9c0,2.2,0.4,3.9,1.3,5C159.5,70.5,160.7,71.1,162.2,71.1z"/>
		<path class="st0" d="M210.9,40c1.3,0,2.5,0.1,3.5,0.4l-1.7,7.1c-1.2-0.3-2.3-0.5-3.3-0.5c-2.7,0-5.2,1.2-7.3,3.7
			c-2.1,2.4-3.6,5.7-4.5,9.6l-3.4,16.3h-7.7l7.7-36h6l-0.7,6.7h0.3c1.8-2.6,3.6-4.5,5.4-5.6C207,40.6,208.9,40,210.9,40z"/>
		<path class="st0" d="M238.5,40c4.8,0,7.5,2.5,8.3,7.6h0.3c1.6-2.5,3.5-4.4,5.5-5.7c2.1-1.3,4.2-1.9,6.5-1.9c2.9,0,5.1,0.8,6.6,2.5
			c1.5,1.7,2.3,4,2.3,7c0,1.4-0.2,3.3-0.7,5.9l-4.6,21.2h-7.6l4.6-21.8c0.4-2.1,0.6-3.5,0.6-4.3c0-2.8-1.3-4.2-3.9-4.2
			c-2.3,0-4.5,1.3-6.6,4c-2,2.7-3.5,6.3-4.4,10.7L242,76.6h-7.6l4.6-21.8c0.4-1.8,0.6-3.2,0.6-4.1c0-2.9-1.3-4.4-3.8-4.4
			c-2.4,0-4.6,1.4-6.6,4.1c-2,2.8-3.5,6.4-4.5,11l-3.2,15.2h-7.7l7.7-36h6l-0.7,6.7h0.3C230.2,42.4,234,40,238.5,40z"/>
		<path class="st0" d="M296.8,65.5c0,3.8-1.3,6.6-3.8,8.7c-2.6,2-6.1,3-10.7,3c-4.1,0-7.6-0.7-10.5-2.2v-6.6c3.3,2,6.7,2.9,10.1,2.9
			c2.1,0,3.8-0.4,5.1-1.3c1.3-0.9,2-2,2-3.5c0-1.1-0.4-2.1-1.1-2.8c-0.7-0.8-2.3-1.8-4.6-3.2c-2.7-1.5-4.6-2.9-5.7-4.4
			c-1.1-1.5-1.7-3.3-1.7-5.3c0-3.4,1.2-6,3.5-7.9c2.3-1.9,5.5-2.9,9.4-2.9c4.2,0,8,0.9,11.2,2.7l-2.5,5.7c-3-1.6-5.9-2.5-8.6-2.5
			c-1.6,0-2.9,0.4-3.9,1.1c-1,0.7-1.5,1.7-1.5,3c0,1,0.4,1.8,1.1,2.6c0.7,0.8,2.2,1.7,4.4,2.9c2.3,1.3,3.9,2.4,4.8,3.3
			c1,0.9,1.7,1.9,2.2,3C296.5,62.9,296.8,64.1,296.8,65.5z"/>
		<path class="st0" d="M129.3,37.7c-1.4-5.4-4-10-9.5-12.3c-3.1-1.4-4,5-5.6,6.9c-3.6,8.4-9.7,0.8-4-2.5c1.7-0.5,0,2-0.1,2.9
			c0.6,3,3-1.7,3.8-2.6c2.8-6.6,11.1-11.7,10.2-19.2c-2-3.1-5.1-0.2-5.8,2.8c-0.7,2.7,0.1,6.7-1.6,8.5c-3.5,3.5-7,1.4-13.4,3.4
			c-22.5,7.1-11.5,36.1-4.6,51.9h5c-8.2-42.3,23-42.2,14.8,0h4.9C127.4,64.6,133.2,51.3,129.3,37.7z"/>
		<path class="st0" d="M160.2,16c2.9-1,3.5-1.9,6-2.9c-0.2-2.2-8-2.1-10.2-1.7c-8.7,1.8-7.9-0.8,2.6-10.5c2.1-1.5-1.7-0.9-4.3-0.6
			c-6.6,0.6-11.5,5.1-15.2,10.2c-2.7,4.2-11.8,10-12.7,15.5c-0.2,1.1,0.2,2.2,0.9,3c4.2,4.7,4.1,9.2,4.8,15.2c1.1,9,12,9.7,14.1,5.8
			c4.1-6.5,0.5-10.9-1.1-14.7c-0.7-1.6-0.1-3.6,1.4-4.5c1.8-1.1-0.6-4.6-1.3-6.5C142.7,14.9,154.3,18,160.2,16z M143.7,30
			c-0.7,0.3-1.7-0.2-2.1-1.2c-0.4-1-0.2-2,0.5-2.3c0.7-0.3,1.7,0.2,2.1,1.2C144.7,28.6,144.5,29.7,143.7,30z"/>
	</g>
</g>
</svg>
